<mxfile host="app.diagrams.net" agent="Mozilla/5.0 (Windows NT 10.0; Win64; x64) AppleWebKit/537.36 (KHTML, like Gecko) Chrome/136.0.0.0 Safari/537.36" version="27.0.1">
  <diagram name="Page-1" id="pIi9NT4TqHAl4HyNbGb8">
    <mxGraphModel dx="772" dy="483" grid="1" gridSize="10" guides="1" tooltips="1" connect="1" arrows="1" fold="1" page="1" pageScale="1" pageWidth="827" pageHeight="1169" math="0" shadow="0">
      <root>
        <mxCell id="0" />
        <mxCell id="1" parent="0" />
        <mxCell id="dT4LZuu2ujaMMOGYnrp7-1" value="" style="rounded=0;whiteSpace=wrap;html=1;" parent="1" vertex="1">
          <mxGeometry x="200" y="40" width="430" height="320" as="geometry" />
        </mxCell>
        <mxCell id="dT4LZuu2ujaMMOGYnrp7-2" value="&lt;h4&gt;&lt;font style=&quot;font-size: 13px;&quot;&gt;Garda Station System&lt;/font&gt;&lt;/h4&gt;" style="text;html=1;align=center;verticalAlign=middle;whiteSpace=wrap;rounded=0;" parent="1" vertex="1">
          <mxGeometry x="300" y="10" width="200" height="30" as="geometry" />
        </mxCell>
        <mxCell id="dT4LZuu2ujaMMOGYnrp7-3" value="&lt;b&gt;&lt;font style=&quot;font-size: 13px;&quot;&gt;User&lt;/font&gt;&lt;/b&gt;" style="shape=umlActor;verticalLabelPosition=bottom;verticalAlign=top;html=1;" parent="1" vertex="1">
          <mxGeometry x="110" y="90" width="30" height="60" as="geometry" />
        </mxCell>
        <mxCell id="yVSypjSGeWVxoBoERW7e-5" value="" style="edgeStyle=orthogonalEdgeStyle;rounded=0;orthogonalLoop=1;jettySize=auto;html=1;" parent="1" source="dT4LZuu2ujaMMOGYnrp7-4" target="dT4LZuu2ujaMMOGYnrp7-12" edge="1">
          <mxGeometry relative="1" as="geometry" />
        </mxCell>
        <mxCell id="dT4LZuu2ujaMMOGYnrp7-4" value="&lt;div&gt;Search Garda by Name&lt;/div&gt;" style="ellipse;whiteSpace=wrap;html=1;" parent="1" vertex="1">
          <mxGeometry x="221" y="80" width="140" height="65" as="geometry" />
        </mxCell>
        <mxCell id="dT4LZuu2ujaMMOGYnrp7-5" value="" style="endArrow=open;endFill=1;endSize=12;html=1;rounded=0;exitX=1;exitY=0.3333333333333333;exitDx=0;exitDy=0;exitPerimeter=0;entryX=0;entryY=0.5;entryDx=0;entryDy=0;" parent="1" source="dT4LZuu2ujaMMOGYnrp7-3" target="dT4LZuu2ujaMMOGYnrp7-4" edge="1">
          <mxGeometry width="160" relative="1" as="geometry">
            <mxPoint x="320" y="250" as="sourcePoint" />
            <mxPoint x="480" y="250" as="targetPoint" />
          </mxGeometry>
        </mxCell>
        <mxCell id="dT4LZuu2ujaMMOGYnrp7-6" value="&lt;div&gt;Sort Gardaí Alphabetically&lt;/div&gt;" style="ellipse;whiteSpace=wrap;html=1;" parent="1" vertex="1">
          <mxGeometry x="460" y="77.5" width="150" height="70" as="geometry" />
        </mxCell>
        <mxCell id="dT4LZuu2ujaMMOGYnrp7-7" value="" style="endArrow=open;endFill=1;endSize=12;html=1;rounded=0;exitX=0.974;exitY=0.41;exitDx=0;exitDy=0;entryX=0.031;entryY=0.362;entryDx=0;entryDy=0;exitPerimeter=0;entryPerimeter=0;dashed=1;" parent="1" source="dT4LZuu2ujaMMOGYnrp7-4" target="dT4LZuu2ujaMMOGYnrp7-6" edge="1">
          <mxGeometry width="160" relative="1" as="geometry">
            <mxPoint x="320" y="250" as="sourcePoint" />
            <mxPoint x="480" y="250" as="targetPoint" />
          </mxGeometry>
        </mxCell>
        <mxCell id="dT4LZuu2ujaMMOGYnrp7-8" value="&amp;lt;&amp;lt;include&amp;gt;&amp;gt;" style="edgeLabel;html=1;align=center;verticalAlign=middle;resizable=0;points=[];" parent="dT4LZuu2ujaMMOGYnrp7-7" vertex="1" connectable="0">
          <mxGeometry x="-0.0494" relative="1" as="geometry">
            <mxPoint as="offset" />
          </mxGeometry>
        </mxCell>
        <mxCell id="dT4LZuu2ujaMMOGYnrp7-9" value="Display result" style="rounded=1;whiteSpace=wrap;html=1;" parent="1" vertex="1">
          <mxGeometry x="464.5" y="260" width="141" height="30" as="geometry" />
        </mxCell>
        <mxCell id="dT4LZuu2ujaMMOGYnrp7-10" value="Prompt for name" style="rounded=1;whiteSpace=wrap;html=1;" parent="1" vertex="1">
          <mxGeometry x="220" y="190" width="141" height="30" as="geometry" />
        </mxCell>
        <mxCell id="dT4LZuu2ujaMMOGYnrp7-11" value="Perform Binary Search" style="rounded=1;whiteSpace=wrap;html=1;" parent="1" vertex="1">
          <mxGeometry x="464.5" y="190" width="141" height="30" as="geometry" />
        </mxCell>
        <mxCell id="dT4LZuu2ujaMMOGYnrp7-12" value="Display ‘not found’ message" style="rounded=1;whiteSpace=wrap;html=1;" parent="1" vertex="1">
          <mxGeometry x="205.5" y="260" width="170" height="30" as="geometry" />
        </mxCell>
        <mxCell id="dT4LZuu2ujaMMOGYnrp7-15" value="" style="endArrow=classic;html=1;rounded=0;exitX=0.5;exitY=1;exitDx=0;exitDy=0;entryX=0.5;entryY=0;entryDx=0;entryDy=0;" parent="1" source="dT4LZuu2ujaMMOGYnrp7-11" target="dT4LZuu2ujaMMOGYnrp7-9" edge="1">
          <mxGeometry width="50" height="50" relative="1" as="geometry">
            <mxPoint x="509" y="180" as="sourcePoint" />
            <mxPoint x="509" y="220" as="targetPoint" />
          </mxGeometry>
        </mxCell>
        <mxCell id="yVSypjSGeWVxoBoERW7e-2" value="" style="endArrow=classic;html=1;rounded=0;exitX=0.5;exitY=1;exitDx=0;exitDy=0;" parent="1" source="dT4LZuu2ujaMMOGYnrp7-4" edge="1">
          <mxGeometry width="50" height="50" relative="1" as="geometry">
            <mxPoint x="370" y="280" as="sourcePoint" />
            <mxPoint x="291" y="190" as="targetPoint" />
          </mxGeometry>
        </mxCell>
        <mxCell id="yVSypjSGeWVxoBoERW7e-3" value="" style="endArrow=classic;html=1;rounded=0;entryX=0.5;entryY=0;entryDx=0;entryDy=0;" parent="1" target="dT4LZuu2ujaMMOGYnrp7-12" edge="1">
          <mxGeometry width="50" height="50" relative="1" as="geometry">
            <mxPoint x="290" y="220" as="sourcePoint" />
            <mxPoint x="294" y="199" as="targetPoint" />
          </mxGeometry>
        </mxCell>
        <mxCell id="yVSypjSGeWVxoBoERW7e-4" value="" style="endArrow=classic;html=1;rounded=0;exitX=0.5;exitY=1;exitDx=0;exitDy=0;entryX=0.5;entryY=0;entryDx=0;entryDy=0;" parent="1" source="dT4LZuu2ujaMMOGYnrp7-6" target="dT4LZuu2ujaMMOGYnrp7-11" edge="1">
          <mxGeometry width="50" height="50" relative="1" as="geometry">
            <mxPoint x="305" y="165" as="sourcePoint" />
            <mxPoint x="304" y="209" as="targetPoint" />
          </mxGeometry>
        </mxCell>
      </root>
    </mxGraphModel>
  </diagram>
</mxfile>
